<mxfile host="app.diagrams.net" agent="Mozilla/5.0 (X11; Linux x86_64) AppleWebKit/537.36 (KHTML, like Gecko) Chrome/127.0.0.0 Safari/537.36" version="24.7.6">
  <diagram id="yPxyJZ8AM_hMuL3Unpa9" name="complex gitflow">
    <mxGraphModel dx="1434" dy="707" grid="1" gridSize="10" guides="1" tooltips="1" connect="1" arrows="1" fold="1" page="1" pageScale="1" pageWidth="1100" pageHeight="850" math="0" shadow="0">
      <root>
        <mxCell id="0" />
        <mxCell id="1" parent="0" />
        <mxCell id="Ud2c-rGIMPgrmA5Fe9ls-14" style="edgeStyle=orthogonalEdgeStyle;rounded=0;orthogonalLoop=1;jettySize=auto;html=1;exitX=1;exitY=0.25;exitDx=0;exitDy=0;entryX=0;entryY=0.25;entryDx=0;entryDy=0;" parent="1" source="Ud2c-rGIMPgrmA5Fe9ls-7" edge="1">
          <mxGeometry relative="1" as="geometry">
            <mxPoint x="441" y="208" as="targetPoint" />
          </mxGeometry>
        </mxCell>
        <mxCell id="Ud2c-rGIMPgrmA5Fe9ls-7" value="&lt;div&gt;&lt;font style=&quot;font-size: 12px;&quot;&gt;&lt;br&gt;&lt;/font&gt;&lt;/div&gt;&lt;div&gt;&lt;font style=&quot;font-size: 12px;&quot;&gt;&lt;br&gt;&lt;/font&gt;&lt;/div&gt;&lt;div&gt;&lt;font style=&quot;font-size: 12px;&quot;&gt;&lt;br&gt;&lt;/font&gt;&lt;/div&gt;&lt;div&gt;&lt;font style=&quot;font-size: 12px;&quot;&gt;&lt;br&gt;&lt;/font&gt;&lt;/div&gt;&lt;div&gt;&lt;br&gt;&lt;/div&gt;&lt;font style=&quot;font-size: 12px;&quot;&gt;거래타입 및 각 거래소 데이터&amp;nbsp;&lt;/font&gt;&lt;div&gt;&lt;font style=&quot;font-size: 12px;&quot;&gt;100개씩 반복 호출&lt;/font&gt;&lt;div&gt;(연결 실패 시 재시도 로직)&lt;br&gt;&lt;div style=&quot;&quot;&gt;&lt;font style=&quot;font-size: 12px;&quot;&gt;&lt;br&gt;&lt;/font&gt;&lt;/div&gt;&lt;div style=&quot;&quot;&gt;&lt;font style=&quot;font-size: 12px;&quot;&gt;수집된 데이터는 SQLite DB에 저장 -&amp;gt; XXXX.db 생성&lt;/font&gt;&lt;/div&gt;&lt;/div&gt;&lt;div style=&quot;&quot;&gt;원본테이블 및 fts 테이블,&amp;nbsp;&lt;/div&gt;&lt;div style=&quot;&quot;&gt;log테이블 등 생성&lt;/div&gt;&lt;div style=&quot;&quot;&gt;&lt;br&gt;&lt;/div&gt;&lt;div style=&quot;&quot;&gt;save_XXXX.log 생성 및 logging&lt;/div&gt;&lt;div style=&quot;&quot;&gt;&lt;br&gt;&lt;/div&gt;&lt;div style=&quot;&quot;&gt;&lt;br&gt;&lt;/div&gt;&lt;div style=&quot;&quot;&gt;* 추후 각 거래소 및 거래타입별로 .py와 .db 별도로 생성&amp;nbsp;&lt;/div&gt;&lt;/div&gt;" style="rounded=1;whiteSpace=wrap;html=1;align=center;" parent="1" vertex="1">
          <mxGeometry x="201" y="154" width="159" height="306" as="geometry" />
        </mxCell>
        <mxCell id="Ud2c-rGIMPgrmA5Fe9ls-15" value="" style="edgeStyle=orthogonalEdgeStyle;rounded=0;orthogonalLoop=1;jettySize=auto;html=1;" parent="1" source="Ud2c-rGIMPgrmA5Fe9ls-4" target="Ud2c-rGIMPgrmA5Fe9ls-7" edge="1">
          <mxGeometry relative="1" as="geometry" />
        </mxCell>
        <mxCell id="Ud2c-rGIMPgrmA5Fe9ls-4" value="&lt;font style=&quot;font-size: 14px;&quot;&gt;마톡 DB API&lt;/font&gt;" style="rounded=1;whiteSpace=wrap;html=1;" parent="1" vertex="1">
          <mxGeometry x="25" y="164" width="90" height="60" as="geometry" />
        </mxCell>
        <mxCell id="Ud2c-rGIMPgrmA5Fe9ls-5" value="API Script&lt;div&gt;(save_XXXX.py)&lt;/div&gt;" style="rounded=1;whiteSpace=wrap;html=1;" parent="1" vertex="1">
          <mxGeometry x="220" y="163" width="120" height="60" as="geometry" />
        </mxCell>
        <mxCell id="Ud2c-rGIMPgrmA5Fe9ls-21" style="edgeStyle=orthogonalEdgeStyle;rounded=0;orthogonalLoop=1;jettySize=auto;html=1;exitX=0.25;exitY=1;exitDx=0;exitDy=0;entryX=0.25;entryY=0;entryDx=0;entryDy=0;" parent="1" source="Ud2c-rGIMPgrmA5Fe9ls-19" edge="1">
          <mxGeometry relative="1" as="geometry">
            <mxPoint x="729" y="81" as="sourcePoint" />
            <mxPoint x="718.75" y="154" as="targetPoint" />
          </mxGeometry>
        </mxCell>
        <mxCell id="Ud2c-rGIMPgrmA5Fe9ls-33" style="edgeStyle=orthogonalEdgeStyle;rounded=0;orthogonalLoop=1;jettySize=auto;html=1;exitX=1;exitY=0.25;exitDx=0;exitDy=0;entryX=0;entryY=0.25;entryDx=0;entryDy=0;" parent="1" source="Ud2c-rGIMPgrmA5Fe9ls-16" target="Ud2c-rGIMPgrmA5Fe9ls-31" edge="1">
          <mxGeometry relative="1" as="geometry" />
        </mxCell>
        <mxCell id="Ud2c-rGIMPgrmA5Fe9ls-16" value="&lt;div&gt;FastAPI 및 프로젝트 셋팅,&amp;nbsp;&lt;/div&gt;&lt;div&gt;logging, API 라우터 생성&lt;/div&gt;&lt;div&gt;&lt;br&gt;&lt;/div&gt;&lt;div&gt;main.log 생성 및 logging&lt;/div&gt;" style="rounded=1;whiteSpace=wrap;html=1;align=center;" parent="1" vertex="1">
          <mxGeometry x="441" y="152" width="159" height="220" as="geometry" />
        </mxCell>
        <mxCell id="Ud2c-rGIMPgrmA5Fe9ls-17" value="&lt;span style=&quot;font-size: 14px;&quot;&gt;main.py&lt;/span&gt;" style="rounded=1;whiteSpace=wrap;html=1;" parent="1" vertex="1">
          <mxGeometry x="458" y="162" width="120" height="60" as="geometry" />
        </mxCell>
        <mxCell id="Ud2c-rGIMPgrmA5Fe9ls-22" style="edgeStyle=orthogonalEdgeStyle;rounded=0;orthogonalLoop=1;jettySize=auto;html=1;exitX=0.75;exitY=0;exitDx=0;exitDy=0;entryX=0.75;entryY=1;entryDx=0;entryDy=0;" parent="1" target="Ud2c-rGIMPgrmA5Fe9ls-19" edge="1">
          <mxGeometry relative="1" as="geometry">
            <mxPoint x="798.25" y="154" as="sourcePoint" />
            <mxPoint x="788" y="81" as="targetPoint" />
          </mxGeometry>
        </mxCell>
        <mxCell id="Ud2c-rGIMPgrmA5Fe9ls-19" value="&lt;font style=&quot;font-size: 14px;&quot;&gt;마톡&lt;/font&gt;" style="rounded=1;whiteSpace=wrap;html=1;" parent="1" vertex="1">
          <mxGeometry x="679" y="11" width="159" height="60" as="geometry" />
        </mxCell>
        <mxCell id="Ud2c-rGIMPgrmA5Fe9ls-23" value="&lt;font style=&quot;font-size: 10px;&quot;&gt;검색 정보&lt;/font&gt;" style="whiteSpace=wrap;html=1;" parent="1" vertex="1">
          <mxGeometry x="661" y="100" width="50" height="20" as="geometry" />
        </mxCell>
        <mxCell id="Ud2c-rGIMPgrmA5Fe9ls-24" value="&lt;span style=&quot;font-size: 10px;&quot;&gt;결과&lt;/span&gt;" style="whiteSpace=wrap;html=1;" parent="1" vertex="1">
          <mxGeometry x="808" y="101" width="50" height="20" as="geometry" />
        </mxCell>
        <mxCell id="Ud2c-rGIMPgrmA5Fe9ls-25" value="&lt;div&gt;&lt;font style=&quot;font-size: 12px;&quot;&gt;&lt;br&gt;&lt;/font&gt;&lt;/div&gt;&lt;div&gt;Redis or Memcached&lt;/div&gt;&lt;div&gt;Cache Key 생성 및 관리&lt;/div&gt;&lt;div&gt;&lt;br&gt;&lt;/div&gt;&lt;div&gt;cache 관리 주기&lt;/div&gt;" style="rounded=1;whiteSpace=wrap;html=1;align=center;" parent="1" vertex="1">
          <mxGeometry x="920" y="430" width="159" height="220" as="geometry" />
        </mxCell>
        <mxCell id="Ud2c-rGIMPgrmA5Fe9ls-26" value="&lt;span style=&quot;font-size: 14px;&quot;&gt;Caching&lt;/span&gt;" style="rounded=1;whiteSpace=wrap;html=1;" parent="1" vertex="1">
          <mxGeometry x="939" y="440" width="120" height="60" as="geometry" />
        </mxCell>
        <mxCell id="Ud2c-rGIMPgrmA5Fe9ls-36" style="edgeStyle=orthogonalEdgeStyle;rounded=0;orthogonalLoop=1;jettySize=auto;html=1;exitX=1;exitY=0.25;exitDx=0;exitDy=0;entryX=0;entryY=0.25;entryDx=0;entryDy=0;" parent="1" source="Ud2c-rGIMPgrmA5Fe9ls-31" target="Ud2c-rGIMPgrmA5Fe9ls-34" edge="1">
          <mxGeometry relative="1" as="geometry" />
        </mxCell>
        <mxCell id="Ud2c-rGIMPgrmA5Fe9ls-31" value="&lt;div&gt;API 라우터 :&amp;nbsp;&lt;span style=&quot;background-color: initial;&quot;&gt;검색&amp;nbsp; 및 반환 셋팅&lt;/span&gt;&lt;/div&gt;&lt;div&gt;&lt;span style=&quot;background-color: initial;&quot;&gt;SQLite 검색&lt;/span&gt;&lt;/div&gt;&lt;div&gt;&lt;br&gt;&lt;/div&gt;" style="rounded=1;whiteSpace=wrap;html=1;align=center;" parent="1" vertex="1">
          <mxGeometry x="680" y="152" width="159" height="220" as="geometry" />
        </mxCell>
        <mxCell id="Ud2c-rGIMPgrmA5Fe9ls-32" value="&lt;span style=&quot;font-size: 14px;&quot;&gt;mna.py&lt;/span&gt;" style="rounded=1;whiteSpace=wrap;html=1;" parent="1" vertex="1">
          <mxGeometry x="697" y="162" width="120" height="60" as="geometry" />
        </mxCell>
        <mxCell id="Ud2c-rGIMPgrmA5Fe9ls-39" style="edgeStyle=orthogonalEdgeStyle;rounded=0;orthogonalLoop=1;jettySize=auto;html=1;exitX=0;exitY=0.75;exitDx=0;exitDy=0;entryX=1;entryY=0.75;entryDx=0;entryDy=0;" parent="1" source="Ud2c-rGIMPgrmA5Fe9ls-34" target="Ud2c-rGIMPgrmA5Fe9ls-31" edge="1">
          <mxGeometry relative="1" as="geometry" />
        </mxCell>
        <mxCell id="Ud2c-rGIMPgrmA5Fe9ls-45" style="edgeStyle=orthogonalEdgeStyle;rounded=0;orthogonalLoop=1;jettySize=auto;html=1;exitX=0.5;exitY=1;exitDx=0;exitDy=0;entryX=0.5;entryY=0;entryDx=0;entryDy=0;" parent="1" source="Ud2c-rGIMPgrmA5Fe9ls-34" target="Ud2c-rGIMPgrmA5Fe9ls-25" edge="1">
          <mxGeometry relative="1" as="geometry" />
        </mxCell>
        <mxCell id="Ud2c-rGIMPgrmA5Fe9ls-34" value="&lt;div&gt;db접속 및 쿼리 호출&lt;/div&gt;&lt;div&gt;검색 결과와 검색 개수 반환&lt;/div&gt;" style="rounded=1;whiteSpace=wrap;html=1;align=center;" parent="1" vertex="1">
          <mxGeometry x="920" y="152" width="159" height="220" as="geometry" />
        </mxCell>
        <mxCell id="Ud2c-rGIMPgrmA5Fe9ls-35" value="&lt;span style=&quot;font-size: 14px;&quot;&gt;database.py&lt;/span&gt;" style="rounded=1;whiteSpace=wrap;html=1;" parent="1" vertex="1">
          <mxGeometry x="937" y="162" width="120" height="60" as="geometry" />
        </mxCell>
        <mxCell id="Ud2c-rGIMPgrmA5Fe9ls-38" value="&lt;font style=&quot;font-size: 10px;&quot;&gt;검색 정보&lt;/font&gt;" style="whiteSpace=wrap;html=1;" parent="1" vertex="1">
          <mxGeometry x="854" y="181" width="50" height="20" as="geometry" />
        </mxCell>
        <mxCell id="Ud2c-rGIMPgrmA5Fe9ls-40" value="&lt;span style=&quot;font-size: 10px;&quot;&gt;결과&lt;/span&gt;" style="whiteSpace=wrap;html=1;" parent="1" vertex="1">
          <mxGeometry x="856" y="331" width="50" height="20" as="geometry" />
        </mxCell>
        <mxCell id="Ud2c-rGIMPgrmA5Fe9ls-43" value="&lt;span style=&quot;font-size: 10px;&quot;&gt;결과&lt;/span&gt;" style="whiteSpace=wrap;html=1;" parent="1" vertex="1">
          <mxGeometry x="938" y="394" width="50" height="20" as="geometry" />
        </mxCell>
        <mxCell id="Ud2c-rGIMPgrmA5Fe9ls-48" style="edgeStyle=orthogonalEdgeStyle;rounded=0;orthogonalLoop=1;jettySize=auto;html=1;exitX=0;exitY=0.25;exitDx=0;exitDy=0;entryX=0.5;entryY=1;entryDx=0;entryDy=0;" parent="1" source="Ud2c-rGIMPgrmA5Fe9ls-46" target="Ud2c-rGIMPgrmA5Fe9ls-7" edge="1">
          <mxGeometry relative="1" as="geometry" />
        </mxCell>
        <mxCell id="Ud2c-rGIMPgrmA5Fe9ls-49" style="edgeStyle=orthogonalEdgeStyle;rounded=0;orthogonalLoop=1;jettySize=auto;html=1;exitX=0.25;exitY=0;exitDx=0;exitDy=0;entryX=0.5;entryY=1;entryDx=0;entryDy=0;" parent="1" source="Ud2c-rGIMPgrmA5Fe9ls-46" target="Ud2c-rGIMPgrmA5Fe9ls-16" edge="1">
          <mxGeometry relative="1" as="geometry" />
        </mxCell>
        <mxCell id="Ud2c-rGIMPgrmA5Fe9ls-46" value="DB 업데이트 &amp;amp; 백업&lt;br&gt;&lt;div&gt;log 백업&lt;/div&gt;" style="rounded=1;whiteSpace=wrap;html=1;align=center;" parent="1" vertex="1">
          <mxGeometry x="521" y="550" width="159" height="220" as="geometry" />
        </mxCell>
        <mxCell id="Ud2c-rGIMPgrmA5Fe9ls-47" value="&lt;span style=&quot;font-size: 14px;&quot;&gt;Cron job&lt;/span&gt;" style="rounded=1;whiteSpace=wrap;html=1;" parent="1" vertex="1">
          <mxGeometry x="538" y="560" width="120" height="60" as="geometry" />
        </mxCell>
      </root>
    </mxGraphModel>
  </diagram>
</mxfile>
